<svg width="119" height="50" viewBox="0 0 119 50" fill="none" xmlns="http://www.w3.org/2000/svg">
<g filter="url(#filter0_d_32_12)">
<path d="M18.9023 10.0566C19.2441 10.877 19.415 11.7793 19.415 12.7637C19.415 13.7344 19.3809 14.541 19.3125 15.1836C19.2441 15.8262 19.1416 16.4482 19.0049 17.0498C18.7178 18.3213 18.2734 19.3398 17.6719 20.1055C17.0703 16.3867 16.0928 14.1309 14.7393 13.3379C14.2607 13.0645 13.7412 12.9277 13.1807 12.9277C12.6338 12.9277 12.1553 13.0576 11.7451 13.3174C11.335 13.5771 10.9863 13.9531 10.6992 14.4453C10.1113 15.4297 9.81738 16.708 9.81738 18.2803C9.81738 19.8389 9.97461 21.1855 10.2891 22.3203C10.6035 23.4414 11.0137 24.4531 11.5195 25.3555C12.0391 26.2441 12.6201 27.0166 13.2627 27.6729C13.9189 28.3154 14.5752 28.8555 15.2314 29.293C16.5576 30.1406 17.7334 30.5645 18.7588 30.5645C18.7041 30.9199 18.5264 31.2686 18.2256 31.6104C17.9248 31.9521 17.5967 32.2188 17.2412 32.4102C15.792 32.4102 14.1309 31.918 12.2578 30.9336C8.77148 29.0879 6.41992 26.3945 5.20312 22.8535C4.75195 21.5547 4.52637 20.2285 4.52637 18.875C4.52637 17.5078 4.68359 16.3594 4.99805 15.4297C5.3125 14.4863 5.77051 13.6797 6.37207 13.0098C7.60254 11.5879 9.31152 10.877 11.499 10.877C12.2373 10.877 12.9551 10.9248 13.6523 11.0205C14.9648 11.1982 15.8809 11.2871 16.4004 11.2871C16.9336 11.2871 17.4053 11.2188 17.8154 11.082C18.2256 10.9316 18.5879 10.5898 18.9023 10.0566ZM35.4932 32C36.1221 29.8398 36.4365 26.1279 36.4365 20.8643C36.4365 18.6631 36.3203 17.2002 36.0879 16.4756C35.8555 15.7373 35.5615 15.2041 35.2061 14.876C34.8643 14.5342 34.3994 14.3633 33.8115 14.3633C33.2373 14.3633 32.7109 14.4727 32.2324 14.6914C31.7676 14.9102 31.3506 15.1973 30.9814 15.5527C30.2842 16.209 29.7168 17.084 29.2793 18.1777V22.0947C29.2793 25.9365 29.3545 28.3154 29.5049 29.2314C29.6826 30.4346 29.8672 31.3574 30.0586 32H24.0088C24.3369 30.8516 24.5557 29.3271 24.665 27.4268C24.9111 22.6689 25.0342 19.1689 25.0342 16.9268C25.0342 14.6709 25.0273 13.1328 25.0137 12.3125C25 11.4785 24.9795 10.6514 24.9521 9.83105C24.8838 6.85059 24.7471 4.98438 24.542 4.23242C24.3506 3.4668 24.166 2.91309 23.9883 2.57129C23.8242 2.21582 23.6396 1.89453 23.4346 1.60742L22.7373 0.643555H30.2227C29.8398 2.02441 29.6143 3.30957 29.5459 4.49902C29.4912 5.68848 29.4502 6.65918 29.4229 7.41113C29.3955 8.14941 29.3682 8.92871 29.3408 9.74902C29.2998 11.6631 29.2793 13.3516 29.2793 14.8145C30.3594 12.9961 31.7881 11.793 33.5654 11.2051C34.1943 10.9863 34.8984 10.877 35.6777 10.877C36.457 10.877 37.1611 11.0479 37.79 11.3896C38.4326 11.7178 38.9658 12.1895 39.3896 12.8047C40.2646 14.0488 40.7021 15.751 40.7021 17.9111V20.1055C40.7021 24.2891 40.7568 26.9141 40.8662 27.9805C40.9893 29.0332 41.0713 29.7305 41.1123 30.0723C41.208 30.6738 41.3516 31.3164 41.543 32H35.4932ZM62.0303 21.0488L61.9688 24.9863C61.9688 27.4336 62.1943 29.1016 62.6455 29.9902C62.9189 30.5234 63.2402 30.9336 63.6094 31.2207L64.5732 32H58.626L57.9902 29.6211C56.4453 31.4805 54.2441 32.4102 51.3867 32.4102C49.7598 32.4102 48.4473 31.8633 47.4492 30.7695C46.5742 29.7852 46.1367 28.623 46.1367 27.2832C46.1367 25.9434 46.4512 24.7744 47.0801 23.7764C47.7227 22.7783 48.5635 21.9512 49.6025 21.2949C51.6533 20.0234 54.2305 19.3604 57.334 19.3057V19.0801C57.334 15.7578 56.8213 13.8096 55.7959 13.2354C55.4268 13.0303 54.9482 12.9277 54.3604 12.9277C53.7861 12.9277 53.2119 13.1191 52.6377 13.502C52.0635 13.8848 51.5439 14.377 51.0791 14.9785C50.1494 16.1953 49.4863 17.6309 49.0898 19.2852C47.873 18.5605 47.2646 17.1729 47.2646 15.1221C47.2646 14.2881 47.374 13.3516 47.5928 12.3125C48.1123 12.3125 48.6045 12.2373 49.0693 12.0869L50.6484 11.5947C52.1934 11.1162 53.7041 10.877 55.1807 10.877C56.6572 10.877 57.833 11.0957 58.708 11.5332C59.5967 11.9707 60.2871 12.6201 60.7793 13.4814C61.6133 14.9443 62.0303 17.4668 62.0303 21.0488ZM50.5664 27.6934C50.5664 28.541 50.7578 29.1973 51.1406 29.6621C51.5371 30.127 52.0293 30.3594 52.6172 30.3594C53.2051 30.3594 53.7725 30.209 54.3193 29.9082C54.8662 29.5938 55.3584 29.1699 55.7959 28.6367C56.8213 27.4199 57.334 25.9912 57.334 24.3506V21.3154C55.4199 21.4932 53.8408 22.1289 52.5967 23.2227C51.2432 24.3984 50.5664 25.8887 50.5664 27.6934ZM73.6787 3.08398C73.3916 4.13672 73.248 5.40137 73.248 6.87793C73.248 8.34082 73.2754 9.27734 73.3301 9.6875C73.3984 10.0977 73.501 10.4258 73.6377 10.6719C73.8975 11.082 74.4033 11.2871 75.1553 11.2871H80.6514C80.6514 12.0527 80.4668 12.6406 80.0977 13.0508C79.4277 13.7891 78.6074 14.1582 77.6367 14.1582C77.1582 14.1582 76.7344 14.0898 76.3652 13.9531C75.6953 13.6797 75.1758 13.543 74.8066 13.543C74.4375 13.543 74.1367 13.6182 73.9043 13.7686C73.6719 13.9053 73.4873 14.1104 73.3506 14.3838C73.1045 14.876 72.9814 15.9492 72.9814 17.6035C72.9814 19.2578 73.0293 20.9531 73.125 22.6895C73.2344 24.4258 73.4941 25.8818 73.9043 27.0576C74.3145 28.2197 74.9365 29.0947 75.7705 29.6826C76.6045 30.2705 77.7529 30.5645 79.2158 30.5645C79.2158 30.9883 78.9287 31.4941 78.3545 32.082C78.2041 32.2461 78.0742 32.3555 77.9648 32.4102C75.5449 32.4102 73.7334 32.123 72.5303 31.5488C71.1494 30.8652 70.165 29.6484 69.5771 27.8984C68.9893 26.1211 68.6953 23.4893 68.6953 20.0029C68.6953 16.9541 68.6133 15.1562 68.4492 14.6094C68.2852 14.0488 68.1348 13.6797 67.998 13.502C67.834 13.2969 67.4375 13.0439 66.8086 12.7432C67.6562 12.1006 68.4971 10.9043 69.3311 9.1543L70.3564 7.00098C71.0811 5.36035 71.6963 4.30078 72.2021 3.82227C72.7217 3.33008 73.2139 3.08398 73.6787 3.08398ZM88.8545 3.08398C88.5674 4.13672 88.4238 5.40137 88.4238 6.87793C88.4238 8.34082 88.4512 9.27734 88.5059 9.6875C88.5742 10.0977 88.6768 10.4258 88.8135 10.6719C89.0732 11.082 89.5791 11.2871 90.3311 11.2871H95.8271C95.8271 12.0527 95.6426 12.6406 95.2734 13.0508C94.6035 13.7891 93.7832 14.1582 92.8125 14.1582C92.334 14.1582 91.9102 14.0898 91.541 13.9531C90.8711 13.6797 90.3516 13.543 89.9824 13.543C89.6133 13.543 89.3125 13.6182 89.0801 13.7686C88.8477 13.9053 88.6631 14.1104 88.5264 14.3838C88.2803 14.876 88.1572 15.9492 88.1572 17.6035C88.1572 19.2578 88.2051 20.9531 88.3008 22.6895C88.4102 24.4258 88.6699 25.8818 89.0801 27.0576C89.4902 28.2197 90.1123 29.0947 90.9463 29.6826C91.7803 30.2705 92.9287 30.5645 94.3916 30.5645C94.3916 30.9883 94.1045 31.4941 93.5303 32.082C93.3799 32.2461 93.25 32.3555 93.1406 32.4102C90.7207 32.4102 88.9092 32.123 87.7061 31.5488C86.3252 30.8652 85.3408 29.6484 84.7529 27.8984C84.165 26.1211 83.8711 23.4893 83.8711 20.0029C83.8711 16.9541 83.7891 15.1562 83.625 14.6094C83.4609 14.0488 83.3105 13.6797 83.1738 13.502C83.0098 13.2969 82.6133 13.0439 81.9844 12.7432C82.832 12.1006 83.6729 10.9043 84.5068 9.1543L85.5322 7.00098C86.2568 5.36035 86.8721 4.30078 87.3779 3.82227C87.8975 3.33008 88.3896 3.08398 88.8545 3.08398ZM109.321 25.2119L109.342 20.6592C109.342 17.8018 109.267 15.9355 109.116 15.0605C108.966 14.1855 108.843 13.5771 108.747 13.2354C108.665 12.8799 108.562 12.5518 108.439 12.251L108.05 11.2871H114.1L113.997 12.2305C113.915 12.8867 113.86 13.8438 113.833 15.1016L113.751 18.2188C113.683 20.6113 113.648 22.8467 113.648 24.9248C113.648 27.0029 113.519 28.7803 113.259 30.2568C113.013 31.7334 112.678 33.0322 112.254 34.1533C111.83 35.2744 111.345 36.2383 110.798 37.0449C110.251 37.8652 109.677 38.5488 109.075 39.0957C108.036 40.0801 106.874 40.791 105.589 41.2285C105.315 41.1191 105.049 40.9141 104.789 40.6133C104.543 40.3262 104.393 40.0527 104.338 39.793C105.541 39.1777 106.505 38.2344 107.229 36.9629C108.255 35.1582 108.904 32.5537 109.178 29.1494C107.592 31.3232 105.644 32.4102 103.333 32.4102C101.692 32.4102 100.421 31.7676 99.5186 30.4824C98.6572 29.2383 98.2266 27.5293 98.2266 25.3555V22.5869C98.2266 21.9717 98.2197 21.3428 98.2061 20.7002V18.834C98.1787 17.6445 98.1309 16.7217 98.0625 16.0654C98.0078 15.3955 97.9395 14.8418 97.8574 14.4043C97.7891 13.9531 97.7002 13.5566 97.5908 13.2148C97.4814 12.8594 97.3584 12.5312 97.2217 12.2305L96.7705 11.2871H103.025C102.67 13.2422 102.492 16.9404 102.492 22.3818C102.492 24.5967 102.608 26.0732 102.841 26.8115C103.073 27.5498 103.36 28.0898 103.702 28.4316C104.058 28.7598 104.509 28.9238 105.056 28.9238C105.603 28.9238 106.081 28.8418 106.491 28.6777C106.915 28.5 107.298 28.2676 107.64 27.9805C108.31 27.4609 108.87 26.7432 109.321 25.8271V25.2119ZM110.101 23.5918L109.978 24.084L110.101 23.5918Z" fill="#E6E1DE"/>
</g>
<defs>
<filter id="filter0_d_32_12" x="0.526367" y="0.643555" width="117.573" height="48.585" filterUnits="userSpaceOnUse" color-interpolation-filters="sRGB">
<feFlood flood-opacity="0" result="BackgroundImageFix"/>
<feColorMatrix in="SourceAlpha" type="matrix" values="0 0 0 0 0 0 0 0 0 0 0 0 0 0 0 0 0 0 127 0" result="hardAlpha"/>
<feOffset dy="4"/>
<feGaussianBlur stdDeviation="2"/>
<feComposite in2="hardAlpha" operator="out"/>
<feColorMatrix type="matrix" values="0 0 0 0 0 0 0 0 0 0 0 0 0 0 0 0 0 0 0.25 0"/>
<feBlend mode="normal" in2="BackgroundImageFix" result="effect1_dropShadow_32_12"/>
<feBlend mode="normal" in="SourceGraphic" in2="effect1_dropShadow_32_12" result="shape"/>
</filter>
</defs>
</svg>
