<svg width="136" height="136" viewBox="0 0 136 136" fill="none" xmlns="http://www.w3.org/2000/svg">
<g filter="url(#filter0_d_6_8)">
<g clip-path="url(#clip0_6_8)">
<rect x="4" width="128" height="128" rx="4" fill="#3A5154"/>
<g filter="url(#filter1_d_6_8)">
<path d="M26.9023 55.0566C27.2441 55.877 27.415 56.7793 27.415 57.7637C27.415 58.7344 27.3809 59.541 27.3125 60.1836C27.2441 60.8262 27.1416 61.4482 27.0049 62.0498C26.7178 63.3213 26.2734 64.3398 25.6719 65.1055C25.0703 61.3867 24.0928 59.1309 22.7393 58.3379C22.2607 58.0645 21.7412 57.9277 21.1807 57.9277C20.6338 57.9277 20.1553 58.0576 19.7451 58.3174C19.335 58.5771 18.9863 58.9531 18.6992 59.4453C18.1113 60.4297 17.8174 61.708 17.8174 63.2803C17.8174 64.8389 17.9746 66.1855 18.2891 67.3203C18.6035 68.4414 19.0137 69.4531 19.5195 70.3555C20.0391 71.2441 20.6201 72.0166 21.2627 72.6729C21.9189 73.3154 22.5752 73.8555 23.2314 74.293C24.5576 75.1406 25.7334 75.5645 26.7588 75.5645C26.7041 75.9199 26.5264 76.2686 26.2256 76.6104C25.9248 76.9521 25.5967 77.2188 25.2412 77.4102C23.792 77.4102 22.1309 76.918 20.2578 75.9336C16.7715 74.0879 14.4199 71.3945 13.2031 67.8535C12.752 66.5547 12.5264 65.2285 12.5264 63.875C12.5264 62.5078 12.6836 61.3594 12.998 60.4297C13.3125 59.4863 13.7705 58.6797 14.3721 58.0098C15.6025 56.5879 17.3115 55.877 19.499 55.877C20.2373 55.877 20.9551 55.9248 21.6523 56.0205C22.9648 56.1982 23.8809 56.2871 24.4004 56.2871C24.9336 56.2871 25.4053 56.2188 25.8154 56.082C26.2256 55.9316 26.5879 55.5898 26.9023 55.0566ZM43.4932 77C44.1221 74.8398 44.4365 71.1279 44.4365 65.8643C44.4365 63.6631 44.3203 62.2002 44.0879 61.4756C43.8555 60.7373 43.5615 60.2041 43.2061 59.876C42.8643 59.5342 42.3994 59.3633 41.8115 59.3633C41.2373 59.3633 40.7109 59.4727 40.2324 59.6914C39.7676 59.9102 39.3506 60.1973 38.9814 60.5527C38.2842 61.209 37.7168 62.084 37.2793 63.1777V67.0947C37.2793 70.9365 37.3545 73.3154 37.5049 74.2314C37.6826 75.4346 37.8672 76.3574 38.0586 77H32.0088C32.3369 75.8516 32.5557 74.3271 32.665 72.4268C32.9111 67.6689 33.0342 64.1689 33.0342 61.9268C33.0342 59.6709 33.0273 58.1328 33.0137 57.3125C33 56.4785 32.9795 55.6514 32.9521 54.8311C32.8838 51.8506 32.7471 49.9844 32.542 49.2324C32.3506 48.4668 32.166 47.9131 31.9883 47.5713C31.8242 47.2158 31.6396 46.8945 31.4346 46.6074L30.7373 45.6436H38.2227C37.8398 47.0244 37.6143 48.3096 37.5459 49.499C37.4912 50.6885 37.4502 51.6592 37.4229 52.4111C37.3955 53.1494 37.3682 53.9287 37.3408 54.749C37.2998 56.6631 37.2793 58.3516 37.2793 59.8145C38.3594 57.9961 39.7881 56.793 41.5654 56.2051C42.1943 55.9863 42.8984 55.877 43.6777 55.877C44.457 55.877 45.1611 56.0479 45.79 56.3896C46.4326 56.7178 46.9658 57.1895 47.3896 57.8047C48.2646 59.0488 48.7021 60.751 48.7021 62.9111V65.1055C48.7021 69.2891 48.7568 71.9141 48.8662 72.9805C48.9893 74.0332 49.0713 74.7305 49.1123 75.0723C49.208 75.6738 49.3516 76.3164 49.543 77H43.4932ZM70.0303 66.0488L69.9688 69.9863C69.9688 72.4336 70.1943 74.1016 70.6455 74.9902C70.9189 75.5234 71.2402 75.9336 71.6094 76.2207L72.5732 77H66.626L65.9902 74.6211C64.4453 76.4805 62.2441 77.4102 59.3867 77.4102C57.7598 77.4102 56.4473 76.8633 55.4492 75.7695C54.5742 74.7852 54.1367 73.623 54.1367 72.2832C54.1367 70.9434 54.4512 69.7744 55.0801 68.7764C55.7227 67.7783 56.5635 66.9512 57.6025 66.2949C59.6533 65.0234 62.2305 64.3604 65.334 64.3057V64.0801C65.334 60.7578 64.8213 58.8096 63.7959 58.2354C63.4268 58.0303 62.9482 57.9277 62.3604 57.9277C61.7861 57.9277 61.2119 58.1191 60.6377 58.502C60.0635 58.8848 59.5439 59.377 59.0791 59.9785C58.1494 61.1953 57.4863 62.6309 57.0898 64.2852C55.873 63.5605 55.2646 62.1729 55.2646 60.1221C55.2646 59.2881 55.374 58.3516 55.5928 57.3125C56.1123 57.3125 56.6045 57.2373 57.0693 57.0869L58.6484 56.5947C60.1934 56.1162 61.7041 55.877 63.1807 55.877C64.6572 55.877 65.833 56.0957 66.708 56.5332C67.5967 56.9707 68.2871 57.6201 68.7793 58.4814C69.6133 59.9443 70.0303 62.4668 70.0303 66.0488ZM58.5664 72.6934C58.5664 73.541 58.7578 74.1973 59.1406 74.6621C59.5371 75.127 60.0293 75.3594 60.6172 75.3594C61.2051 75.3594 61.7725 75.209 62.3193 74.9082C62.8662 74.5938 63.3584 74.1699 63.7959 73.6367C64.8213 72.4199 65.334 70.9912 65.334 69.3506V66.3154C63.4199 66.4932 61.8408 67.1289 60.5967 68.2227C59.2432 69.3984 58.5664 70.8887 58.5664 72.6934ZM81.6787 48.084C81.3916 49.1367 81.248 50.4014 81.248 51.8779C81.248 53.3408 81.2754 54.2773 81.3301 54.6875C81.3984 55.0977 81.501 55.4258 81.6377 55.6719C81.8975 56.082 82.4033 56.2871 83.1553 56.2871H88.6514C88.6514 57.0527 88.4668 57.6406 88.0977 58.0508C87.4277 58.7891 86.6074 59.1582 85.6367 59.1582C85.1582 59.1582 84.7344 59.0898 84.3652 58.9531C83.6953 58.6797 83.1758 58.543 82.8066 58.543C82.4375 58.543 82.1367 58.6182 81.9043 58.7686C81.6719 58.9053 81.4873 59.1104 81.3506 59.3838C81.1045 59.876 80.9814 60.9492 80.9814 62.6035C80.9814 64.2578 81.0293 65.9531 81.125 67.6895C81.2344 69.4258 81.4941 70.8818 81.9043 72.0576C82.3145 73.2197 82.9365 74.0947 83.7705 74.6826C84.6045 75.2705 85.7529 75.5645 87.2158 75.5645C87.2158 75.9883 86.9287 76.4941 86.3545 77.082C86.2041 77.2461 86.0742 77.3555 85.9648 77.4102C83.5449 77.4102 81.7334 77.123 80.5303 76.5488C79.1494 75.8652 78.165 74.6484 77.5771 72.8984C76.9893 71.1211 76.6953 68.4893 76.6953 65.0029C76.6953 61.9541 76.6133 60.1562 76.4492 59.6094C76.2852 59.0488 76.1348 58.6797 75.998 58.502C75.834 58.2969 75.4375 58.0439 74.8086 57.7432C75.6562 57.1006 76.4971 55.9043 77.3311 54.1543L78.3564 52.001C79.0811 50.3604 79.6963 49.3008 80.2021 48.8223C80.7217 48.3301 81.2139 48.084 81.6787 48.084ZM96.8545 48.084C96.5674 49.1367 96.4238 50.4014 96.4238 51.8779C96.4238 53.3408 96.4512 54.2773 96.5059 54.6875C96.5742 55.0977 96.6768 55.4258 96.8135 55.6719C97.0732 56.082 97.5791 56.2871 98.3311 56.2871H103.827C103.827 57.0527 103.643 57.6406 103.273 58.0508C102.604 58.7891 101.783 59.1582 100.812 59.1582C100.334 59.1582 99.9102 59.0898 99.541 58.9531C98.8711 58.6797 98.3516 58.543 97.9824 58.543C97.6133 58.543 97.3125 58.6182 97.0801 58.7686C96.8477 58.9053 96.6631 59.1104 96.5264 59.3838C96.2803 59.876 96.1572 60.9492 96.1572 62.6035C96.1572 64.2578 96.2051 65.9531 96.3008 67.6895C96.4102 69.4258 96.6699 70.8818 97.0801 72.0576C97.4902 73.2197 98.1123 74.0947 98.9463 74.6826C99.7803 75.2705 100.929 75.5645 102.392 75.5645C102.392 75.9883 102.104 76.4941 101.53 77.082C101.38 77.2461 101.25 77.3555 101.141 77.4102C98.7207 77.4102 96.9092 77.123 95.7061 76.5488C94.3252 75.8652 93.3408 74.6484 92.7529 72.8984C92.165 71.1211 91.8711 68.4893 91.8711 65.0029C91.8711 61.9541 91.7891 60.1562 91.625 59.6094C91.4609 59.0488 91.3105 58.6797 91.1738 58.502C91.0098 58.2969 90.6133 58.0439 89.9844 57.7432C90.832 57.1006 91.6729 55.9043 92.5068 54.1543L93.5322 52.001C94.2568 50.3604 94.8721 49.3008 95.3779 48.8223C95.8975 48.3301 96.3896 48.084 96.8545 48.084ZM117.321 70.2119L117.342 65.6592C117.342 62.8018 117.267 60.9355 117.116 60.0605C116.966 59.1855 116.843 58.5771 116.747 58.2354C116.665 57.8799 116.562 57.5518 116.439 57.251L116.05 56.2871H122.1L121.997 57.2305C121.915 57.8867 121.86 58.8438 121.833 60.1016L121.751 63.2188C121.683 65.6113 121.648 67.8467 121.648 69.9248C121.648 72.0029 121.519 73.7803 121.259 75.2568C121.013 76.7334 120.678 78.0322 120.254 79.1533C119.83 80.2744 119.345 81.2383 118.798 82.0449C118.251 82.8652 117.677 83.5488 117.075 84.0957C116.036 85.0801 114.874 85.791 113.589 86.2285C113.315 86.1191 113.049 85.9141 112.789 85.6133C112.543 85.3262 112.393 85.0527 112.338 84.793C113.541 84.1777 114.505 83.2344 115.229 81.9629C116.255 80.1582 116.904 77.5537 117.178 74.1494C115.592 76.3232 113.644 77.4102 111.333 77.4102C109.692 77.4102 108.421 76.7676 107.519 75.4824C106.657 74.2383 106.227 72.5293 106.227 70.3555V67.5869C106.227 66.9717 106.22 66.3428 106.206 65.7002V63.834C106.179 62.6445 106.131 61.7217 106.062 61.0654C106.008 60.3955 105.939 59.8418 105.857 59.4043C105.789 58.9531 105.7 58.5566 105.591 58.2148C105.481 57.8594 105.358 57.5312 105.222 57.2305L104.771 56.2871H111.025C110.67 58.2422 110.492 61.9404 110.492 67.3818C110.492 69.5967 110.608 71.0732 110.841 71.8115C111.073 72.5498 111.36 73.0898 111.702 73.4316C112.058 73.7598 112.509 73.9238 113.056 73.9238C113.603 73.9238 114.081 73.8418 114.491 73.6777C114.915 73.5 115.298 73.2676 115.64 72.9805C116.31 72.4609 116.87 71.7432 117.321 70.8271V70.2119ZM118.101 68.5918L117.978 69.084L118.101 68.5918Z" fill="#C2956E"/>
</g>
</g>
<rect x="4.5" y="0.5" width="127" height="127" rx="3.5" stroke="#C2956E"/>
</g>
<defs>
<filter id="filter0_d_6_8" x="0" y="0" width="136" height="136" filterUnits="userSpaceOnUse" color-interpolation-filters="sRGB">
<feFlood flood-opacity="0" result="BackgroundImageFix"/>
<feColorMatrix in="SourceAlpha" type="matrix" values="0 0 0 0 0 0 0 0 0 0 0 0 0 0 0 0 0 0 127 0" result="hardAlpha"/>
<feOffset dy="4"/>
<feGaussianBlur stdDeviation="2"/>
<feComposite in2="hardAlpha" operator="out"/>
<feColorMatrix type="matrix" values="0 0 0 0 0 0 0 0 0 0 0 0 0 0 0 0 0 0 0.25 0"/>
<feBlend mode="normal" in2="BackgroundImageFix" result="effect1_dropShadow_6_8"/>
<feBlend mode="normal" in="SourceGraphic" in2="effect1_dropShadow_6_8" result="shape"/>
</filter>
<filter id="filter1_d_6_8" x="8.52637" y="45.6436" width="117.573" height="48.585" filterUnits="userSpaceOnUse" color-interpolation-filters="sRGB">
<feFlood flood-opacity="0" result="BackgroundImageFix"/>
<feColorMatrix in="SourceAlpha" type="matrix" values="0 0 0 0 0 0 0 0 0 0 0 0 0 0 0 0 0 0 127 0" result="hardAlpha"/>
<feOffset dy="4"/>
<feGaussianBlur stdDeviation="2"/>
<feComposite in2="hardAlpha" operator="out"/>
<feColorMatrix type="matrix" values="0 0 0 0 0 0 0 0 0 0 0 0 0 0 0 0 0 0 0.25 0"/>
<feBlend mode="normal" in2="BackgroundImageFix" result="effect1_dropShadow_6_8"/>
<feBlend mode="normal" in="SourceGraphic" in2="effect1_dropShadow_6_8" result="shape"/>
</filter>
<clipPath id="clip0_6_8">
<rect x="4" width="128" height="128" rx="4" fill="white"/>
</clipPath>
</defs>
</svg>
